<?xml version="1.0" encoding="UTF-8"?><svg id="Layer_2" xmlns="http://www.w3.org/2000/svg" xmlns:xlink="http://www.w3.org/1999/xlink" viewBox="0 0 631.89648 697.38746"><defs><style>.cls-1{fill:#fff;}.cls-2{fill:url(#radial-gradient);filter:url(#drop-shadow-1);}.cls-3{filter:url(#drop-shadow-2);}.cls-4{fill:none;}</style><radialGradient id="radial-gradient" cx="313.81171" cy="233.78791" fx="313.81171" fy="233.78791" r="242.66499" gradientUnits="userSpaceOnUse"><stop offset="0" stop-color="#fff33b"/><stop offset=".04139" stop-color="#fee62d"/><stop offset=".12083" stop-color="#fdd51b"/><stop offset=".20268" stop-color="#fdca0f"/><stop offset=".28988" stop-color="#fdc70c"/><stop offset="1" stop-color="#fbb041"/><stop offset="1" stop-color="#f3903f"/></radialGradient><filter id="drop-shadow-1" filterUnits="userSpaceOnUse"><feOffset dx="1" dy="7"/><feGaussianBlur result="blur" stdDeviation="5"/><feFlood flood-color="#231f20" flood-opacity=".75"/><feComposite in2="blur" operator="in"/><feComposite in="SourceGraphic"/></filter><filter id="drop-shadow-2" filterUnits="userSpaceOnUse"><feOffset dx="0" dy="2"/><feGaussianBlur result="blur-2" stdDeviation="5"/><feFlood flood-color="#231f20" flood-opacity=".75"/><feComposite in2="blur-2" operator="in"/><feComposite in="SourceGraphic"/></filter></defs><g id="Layer_1-2"><g><path class="cls-2" d="m560.06178,8.20932c9.51117,0,15.4563,10.29539,10.70202,18.53306l-39.74905,68.87249-150.71224,260.84332-16.10808,27.84467-34.3379,59.56088-5.39915,9.33349c-4.76106,8.23043-16.64502,8.2245-21.39787-.01067l-39.75552-68.8837L96.60867,95.61487,56.85962,26.74238c-4.75428-8.23767,1.19085-18.53306,10.70202-18.53306h72.35768c4.41525,0,8.495,2.35587,10.70202,6.17994l46.87853,81.22561,105.55778,182.77029c4.75451,8.2323,16.63577,8.23642,21.396.00743l5.40289-9.33996,89.43996-154.90266c4.75638-8.23767-1.18862-18.53511-10.70084-18.53511h-171.74512c-4.41522,0-8.49495-2.35584-10.70198-6.17987l-36.18291-62.69255c-4.75436-8.23767,1.19077-18.53313,10.70198-18.53313h359.39415Z"/><g class="cls-3"><path class="cls-4" d="m50.88867,619.2527L0,531.38648h21.96582l36.85547,63.8252,36.85449-63.8252h21.84473l-50.88867,87.86621h-15.74316Z"/><path class="cls-4" d="m121.91309,619.2527v-87.86621h18.67188v87.86621h-18.67188Z"/><path class="cls-4" d="m151.44434,531.38648h66.3877c3.25293,0,6.24316.81445,8.96973,2.44043,2.72461,1.62891,4.9209,3.80469,6.58984,6.5293,1.66602,2.72656,2.50195,5.75684,2.50195,9.0918v16.47461c0,1.05859-.06152,2.05566-.18359,2.99023-.12207.93652-.34668,1.81152-.6709,2.62402,1.2207,1.5459,2.23633,3.33691,3.05078,5.36914.8125,2.03516,1.2207,4.06934,1.2207,6.10156v18.18359c0,3.25488-.83594,6.26562-2.50195,9.03125-1.66895,2.7666-3.86523,4.96289-6.58984,6.58984-2.72656,1.62793-5.75684,2.44043-9.0918,2.44043h-69.68262v-87.86621Zm65.28906,33.68262v-14.64453h-46.37305v14.64453h46.37305Zm3.41699,35.14551v-16.1084h-49.79004v16.1084h49.79004Z"/><path class="cls-4" d="m252.85449,619.2527v-87.86621h81.1543v19.03809h-61.99512v15.37598h49.91309v19.03809h-49.91309v15.37598h61.99512v19.03809h-81.1543Z"/><path class="cls-4" d="m346.08887,619.2527v-87.74414h69.68262c3.33496,0,6.36523.81445,9.0918,2.44043,2.72461,1.62891,4.92188,3.8252,6.58984,6.59082,1.66699,2.7666,2.50195,5.77734,2.50195,9.03027v22.69824c0,3.25586-.83496,6.2666-2.50195,9.03125-1.66797,2.7666-3.86523,4.96289-6.58984,6.58984-2.72656,1.62793-5.75684,2.44043-9.0918,2.44043l-50.7666.12207v28.80078h-18.91602Zm68.70605-47.95996v-20.86816h-49.79004v20.86816h49.79004Zm-.48828,47.95996l-25.50488-30.38672h24.77344l20.25781,23.91895v6.46777h-19.52637Z"/><path class="cls-4" d="m476.78906,619.2527v-68.82812h-34.41406v-19.03809h87.86621v19.03809h-34.41406v68.82812h-19.03809Z"/><path class="cls-4" d="m572.09863,619.2527v-32.82812l-40.63867-55.03809h22.57715l27.58008,34.6582,27.45801-34.6582h22.82129l-40.76074,55.16016v32.70605h-19.03711Z"/></g><g><path class="cls-1" d="m153.4043,697.38746v-31.95312h7.10059l17.88477,21.30176v-21.30176h6.96777v31.95312h-7.10059l-17.97363-21.39062v21.39062h-6.87891Z"/><path class="cls-1" d="m199.29199,697.38746v-31.95312h29.51172v6.92285h-22.54395v5.5918h18.15039v6.92383h-18.15039v5.5918h22.54395v6.92285h-29.51172Z"/><path class="cls-1" d="m252.99023,697.38746v-25.03027h-12.51465v-6.92285h31.95312v6.92285h-12.51465v25.03027h-6.92383Z"/><path class="cls-1" d="m295.32812,697.38746l-11.62695-31.95312h7.32227l6.96777,19.03906,6.9668-19.03906h6.34668l7.01172,19.03906,6.96777-19.03906h7.27832l-11.62695,31.95312h-5.28125l-7.54492-20.54785-7.5,20.54785h-5.28125Z"/><path class="cls-1" d="m350.31348,697.38746c-1.18359,0-2.27832-.29492-3.28418-.8877-1.00586-.5918-1.80469-1.39062-2.39648-2.39648-.59277-1.00488-.8877-2.10059-.8877-3.28418v-18.81641c0-1.21289.29492-2.31445.8877-3.30664.5918-.99121,1.39062-1.78223,2.39648-2.37402s2.10059-.8877,3.28418-.8877h18.81641c1.18359,0,2.27051.2959,3.26172.8877s1.79004,1.38281,2.39648,2.37402c.60645.99219.91016,2.09375.91016,3.30664v18.81641c0,1.18359-.30371,2.2793-.91016,3.28418-.60645,1.00586-1.40527,1.80469-2.39648,2.39648-.99121.59277-2.07812.8877-3.26172.8877h-18.81641Zm18.41699-6.92285v-18.10742h-18.10645v18.10742h18.10645Z"/><path class="cls-1" d="m389.45605,697.38746v-31.90918h25.34082c1.21289,0,2.31445.29688,3.30566.8877.99121.59277,1.79004,1.3916,2.39648,2.39648.60645,1.00684.91016,2.10156.91016,3.28418v8.25488c0,1.18359-.30371,2.27832-.91016,3.28418s-1.40527,1.80469-2.39648,2.39648-2.09277.8877-3.30566.8877l-18.46191.04395v10.47363h-6.87891Zm24.98535-17.44141v-7.58887h-18.10645v7.58887h18.10645Zm-.17773,17.44141l-9.27539-11.05078h9.00977l7.36719,8.69824v2.35254h-7.10156Z"/><path class="cls-1" d="m434.98828,697.38746v-31.95312h6.92383v12.51465h6.25684l10.47363-12.51465h7.18945v2.39648l-11.40527,13.58008,11.40527,13.58008v2.39648h-7.18945l-10.47363-12.51465h-6.25684v12.51465h-6.92383Z"/></g></g></g></svg>